<?xml version="1.0" encoding="UTF-8" standalone="no"?>
<!-- Created with Inkscape (http://www.inkscape.org/) -->

<svg
   version="1.1"
   id="svg1"
   width="336.37799"
   height="61.894913"
   viewBox="0 0 336.37799 61.894912"
   xmlns="http://www.w3.org/2000/svg"
   xmlns:svg="http://www.w3.org/2000/svg">
  <defs
     id="defs1">
    <clipPath
       clipPathUnits="userSpaceOnUse"
       id="clipPath1">
      <path
         d="M 0,0 H 280.62992 V 402.51969 H 0 Z"
         transform="translate(-14.17323,-352.33507)"
         id="path1" />
    </clipPath>
    <clipPath
       clipPathUnits="userSpaceOnUse"
       id="clipPath22">
      <path
         d="M 0,0 H 280.62992 V 402.51969 H 0 Z"
         transform="translate(-14.17323,-344.33507)"
         id="path22" />
    </clipPath>
    <clipPath
       clipPathUnits="userSpaceOnUse"
       id="clipPath24">
      <path
         d="M 0,0 H 280.62992 V 402.51969 H 0 Z"
         transform="translate(-14.17323,-349.33507)"
         id="path24" />
    </clipPath>
    <clipPath
       clipPathUnits="userSpaceOnUse"
       id="clipPath26">
      <path
         d="M 0,0 H 280.62992 V 402.51969 H 0 Z"
         transform="translate(-14.17323,-336.98426)"
         id="path26" />
    </clipPath>
    <clipPath
       clipPathUnits="userSpaceOnUse"
       id="clipPath55">
      <path
         d="M 0,0 H 280.62992 V 402.51969 H 0 Z"
         transform="translate(-49.173231,-361.33507)"
         id="path55" />
    </clipPath>
  </defs>
  <g
     id="g1"
     transform="translate(-18.897387,-26.152344)">
    <g
       id="g2">
      <path
         d="M 0,0 H 252.28346"
         style="fill:none;stroke:#181715;stroke-width:1;stroke-linecap:butt;stroke-linejoin:miter;stroke-miterlimit:10;stroke-dasharray:1, 6;stroke-dashoffset:0;stroke-opacity:1"
         transform="matrix(1.3333333,0,0,-1.3333333,18.89764,66.91284)"
         clip-path="url(#clipPath1)"
         id="path2" />
    </g>
    <path
       id="path3"
       d="m 9.4572544,-6.0357893 h 2.1445316 v 2.7916406 c 0,1.7032031 -0.9375,2.71101562 -2.7656254,2.71101562 -2.2148437,0 -3.46875,-1.50164062 -3.46875,-7.46789062 0,-7.0244533 1.7226563,-8.2741403 4.0195313,-8.2741403 3.0703121,0 4.3828121,2.368359 4.7460941,4.696406 h 0.667968 v -5.280938 h -0.667968 l -0.878907,1.118672 c -1.265625,-0.9675 -2.25,-1.320234 -3.7031246,-1.320234 -4.7460938,0 -8.4375,3.890156 -8.4375,8.8586718 0,4.7367187 3.3984375,8.49585937 7.7578125,8.49585937 3.0234371,0 6.0820311,-1.81406247 6.8085941,-4.09171877 v -2.2373437 h 1.710937 V -6.7110237 H 9.4572544 Z m 0,0"
       style="fill:#181715;fill-opacity:1;fill-rule:nonzero;stroke:none"
       aria-label="G"
       transform="matrix(1.3333333,0,0,1.5503876,67.08564,52.603907)" />
    <path
       id="path4"
       d="m 3.96202,0.27311692 c 1.5117187,0 2.6835937,-0.7659375 3.2109375,-1.54195312 h 0.09375 c 0.2226562,0.93726562 0.9140625,1.54195312 2.1445312,1.54195312 1.1015623,0 1.9453123,-0.47367188 2.8007813,-1.50164062 l -0.445313,-0.5139844 c -0.515625,0.5845313 -0.738281,0.7357031 -0.984375,0.7357031 -0.316406,0 -0.515625,-0.241875 -0.515625,-0.5139843 v -6.5104688 c 0,-1.3605469 -1.7226558,-2.2978129 -4.1132808,-2.2978129 -2.625,0 -4.5234375,1.1388285 -4.5234375,2.6606254 0,0.8667188 0.6328125,1.5419531 1.5,1.5419531 0.8789063,0 1.5703125,-0.6953906 1.5703125,-1.4714062 0,-0.6349219 -0.46875,-0.7860938 -0.46875,-1.1892188 0,-0.4736718 0.6210938,-0.80625 1.40625,-0.80625 0.9140625,0 1.5351563,0.4736719 1.5351563,1.2496875 v 2.6203125 c -3.7734375,0 -6.234375,1.3202344 -6.234375,3.466875 0,1.52179692 1.2539062,2.52960942 3.0234375,2.52960942 z m 1.5,-1.22953125 c -0.8320313,0 -1.2773438,-0.65507817 -1.2773438,-1.68304687 0,-1.5822656 1.0664063,-2.3885156 2.9882813,-2.3885156 v 1.7636718 c 0,1.3907813 -0.75,2.30789067 -1.7109375,2.30789067 z m 0,0"
       style="fill:#181715;fill-opacity:1;fill-rule:nonzero;stroke:none"
       aria-label="a"
       transform="matrix(1.3333333,0,0,1.5503876,90.592307,52.603907)" />
    <path
       id="path5"
       d="m 1.2784028,-6.1466487 h 0.6679688 c 0.046875,-1.77375 1.1367187,-3.2451563 3.0820312,-3.2451563 H 6.4463716 L 0.56355906,-0.78508621 V 0.00100754 H 9.8448091 V -4.1411018 H 9.1651216 l -0.023437,0.3628125 c -0.082031,2.0760937 -1.40625,3.10406247 -3.0585938,3.10406247 H 4.1377778 L 9.9737153,-9.3011018 V -10.067039 H 1.2784028 Z m 0,0"
       style="fill:#181715;fill-opacity:1;fill-rule:nonzero;stroke:none"
       aria-label="z"
       transform="matrix(1.3333333,0,0,1.5503876,106.76031,52.603907)" />
    <path
       id="path6"
       d="m 11.157372,-5.6528206 v -0.2519531 c 0,-2.7311719 -2.0390629,-4.4242973 -4.6992192,-4.4242973 -3.328125,0 -5.4492187,2.6404692 -5.4492187,5.2305473 0,2.7916406 2.4609375,5.39179687 5.5898437,5.39179687 2.2382813,0 3.9960942,-1.32023437 4.6289062,-3.37617187 h -0.738281 c -0.8789064,1.8946875 -2.2148439,2.59007812 -3.7851564,2.59007812 -1.6992188,0 -2.2265625,-0.84656252 -2.2265625,-4.47468752 V -5.6528206 Z M 8.0050278,-6.328055 H 4.5011216 c 0.1289062,-2.4590625 0.6914062,-3.2854687 1.8984375,-3.2854687 1.0664062,0 1.6054687,0.645 1.6054687,1.9249219 z m 0,0"
       style="fill:#181715;fill-opacity:1;fill-rule:nonzero;stroke:none"
       aria-label="e"
       transform="matrix(1.3333333,0,0,1.5503876,120.97897,52.603907)" />
    <path
       id="path7"
       d="m 4.6046762,0.29327317 c 1.6757813,0 2.6601563,-0.564375 3.46875,-2.19703127 L 7.5343637,-2.21618 c -0.5625,0.9171094 -0.9609375,1.25976567 -1.5703125,1.25976567 -0.5742187,0 -0.84375,-0.31242187 -0.84375,-1.00781247 V -9.3716487 H 7.6867075 V -10.067039 H 5.1203012 v -3.839766 H 4.2062387 c -0.8085937,2.005547 -2.3085937,3.70875 -3.98437495,3.839766 v 0.6953903 H 2.03827 v 7.7803125 c 0,1.22953124 0.7734375,1.88460937 2.5664062,1.88460937 z m 0,0"
       style="fill:#181715;fill-opacity:1;fill-rule:nonzero;stroke:none"
       aria-label="t"
       transform="matrix(1.3333333,0,0,1.5503876,137.03231,52.603907)" />
    <path
       id="path8"
       d="M 0.44560594,-16.194539 H 2.2620122 V -0.67422683 H 0.44560594 V 0.00100754 H 6.7971684 V -0.67422683 H 5.3440434 V -16.859696 H 0.44560594 Z m 6.97265626,6.802734 h 2.15625 l -4.0546875,3.70875 3.46875,5.00882817 h -1.40625 V 0.00100754 H 14.039356 V -0.67422683 H 12.750293 L 8.0041997,-7.0032893 10.687793,-9.391805 h 1.945313 v -0.675234 H 7.4182622 Z m 0,0"
       style="fill:#181715;fill-opacity:1;fill-rule:nonzero;stroke:none"
       aria-label="k"
       transform="matrix(1.3333333,0,0,1.5503876,147.58164,52.603907)" />
    <path
       id="path9"
       d="m 3.9607466,0.27311692 c 1.5117187,0 2.6835937,-0.7659375 3.2109375,-1.54195312 h 0.09375 c 0.2226562,0.93726562 0.9140625,1.54195312 2.1445312,1.54195312 1.1015627,0 1.9453127,-0.47367188 2.8007817,-1.50164062 l -0.445313,-0.5139844 c -0.515625,0.5845313 -0.738281,0.7357031 -0.984375,0.7357031 -0.316406,0 -0.515625,-0.241875 -0.515625,-0.5139843 v -6.5104688 c 0,-1.3605469 -1.7226562,-2.2978129 -4.1132812,-2.2978129 -2.625,0 -4.5234375,1.1388285 -4.5234375,2.6606254 0,0.8667188 0.6328125,1.5419531 1.5,1.5419531 0.8789063,0 1.5703125,-0.6953906 1.5703125,-1.4714062 0,-0.6349219 -0.46875,-0.7860938 -0.46875,-1.1892188 0,-0.4736718 0.6210938,-0.80625 1.40625,-0.80625 0.9140625,0 1.5351563,0.4736719 1.5351563,1.2496875 v 2.6203125 c -3.7734375,0 -6.23437504,1.3202344 -6.23437504,3.466875 0,1.52179692 1.25390624,2.52960942 3.02343754,2.52960942 z m 1.5,-1.22953125 c -0.8320313,0 -1.2773438,-0.65507817 -1.2773438,-1.68304687 0,-1.5822656 1.0664063,-2.3885156 2.9882813,-2.3885156 v 1.7636718 c 0,1.3907813 -0.75,2.30789067 -1.7109375,2.30789067 z m 0,0"
       style="fill:#181715;fill-opacity:1;fill-rule:nonzero;stroke:none"
       aria-label="a"
       transform="matrix(1.3333333,0,0,1.5503876,166.38697,52.603907)" />
    <path
       id="path10"
       d="M -0.33975344,0.00100754 H 5.1211841 V -0.67422683 H 2.5079028 L 4.0430591,-4.5643831 h 5.4375 l 1.4062499,3.89015627 H 8.5664966 V 0.00100754 H 16.324309 V -0.67422683 H 14.753997 L 8.8125903,-17.061258 H 8.2266528 L 1.7696216,-0.67422683 H -0.33975344 Z M 6.9258716,-11.538446 9.2344653,-5.2093831 h -4.921875 l 2.53125,-6.3290629 z m 0,0"
       style="fill:#181715;fill-opacity:1;fill-rule:nonzero;stroke:none"
       aria-label=" A"
       transform="matrix(1.3333333,0,0,1.5503876,187.37097,52.603907)" />
    <path
       id="path11"
       d="M 0.44549656,-9.391805 H 2.2619028 v 8.71757817 H 0.44549656 V 0.00100754 H 6.7970591 V -0.67422683 H 5.3439341 V -5.683055 c 0,-1.7636718 1.2773437,-3.3459375 2.015625,-3.3459375 0.1289062,0 0.1757812,0.040312 0.1757812,0.1108594 0,0.1511719 -0.2929687,0.3527344 -0.2929687,0.9574219 0,1.0078125 0.8320312,1.5217969 1.6992187,1.5217969 0.9375,0 1.6757817,-0.5845313 1.6757817,-1.854375 0,-1.3000782 -0.7734379,-2.0357817 -2.1445317,-2.0357817 -0.8671875,0 -2.0507812,0.312422 -3.0351562,1.985391 h -0.09375 v -1.723359 H 0.44549656 Z m 0,0"
       style="fill:#181715;fill-opacity:1;fill-rule:nonzero;stroke:none"
       aria-label="r"
       transform="matrix(1.3333333,0,0,1.5503876,208.69897,52.603907)" />
    <path
       id="path12"
       d="m 4.6058169,0.29327317 c 1.6757812,0 2.6601562,-0.564375 3.46875,-2.19703127 L 7.5355044,-2.21618 c -0.5625,0.9171094 -0.9609375,1.25976567 -1.5703125,1.25976567 -0.5742188,0 -0.84375,-0.31242187 -0.84375,-1.00781247 V -9.3716487 H 7.6878481 V -10.067039 H 5.1214419 v -3.839766 H 4.2073794 c -0.8085938,2.005547 -2.3085938,3.70875 -3.98437502,3.839766 v 0.6953903 H 2.0394106 v 7.7803125 c 0,1.22953124 0.7734375,1.88460937 2.5664063,1.88460937 z m 0,0"
       style="fill:#181715;fill-opacity:1;fill-rule:nonzero;stroke:none"
       aria-label="t"
       transform="matrix(1.3333333,0,0,1.5503876,224.52297,52.603907)" />
    <path
       id="path13"
       d="m -0.33840969,-9.391805 h 1.1953125 l 4.51171879,9.32226567 -1.875,4.65609373 c -0.1875,0.403125 -0.3164063,0.5542969 -0.5625,0.5542969 -0.609375,0 -0.7148438,-0.886875 -1.7226563,-0.886875 -0.78515624,0 -1.35937499,0.5542969 -1.35937499,1.3807031 0,0.6953906 0.3984375,1.5923438 1.72265629,1.5923438 0.8671875,0 1.7109375,-0.403125 2.4726562,-2.2373438 L 10.06784,-9.391805 h 1.359375 v -0.675234 H 7.5131528 v 0.675234 H 9.1420591 L 6.9272153,-3.9395393 H 6.8451841 L 4.3842466,-9.391805 h 1.7929687 v -0.675234 h -6.51562499 z m 0,0"
       style="fill:#181715;fill-opacity:1;fill-rule:nonzero;stroke:none"
       aria-label="y"
       transform="matrix(1.3333333,0,0,1.5503876,235.07231,52.603907)" />
    <path
       id="path14"
       d="m 5.1201372,0.27311692 c 2.2148437,0 3.6679687,-1.1690625 3.6679687,-3.49710942 0,-2.2071093 -1.59375,-2.9730468 -3.6445312,-3.4164843 -2.109375,-0.4434375 -2.484375,-0.8969532 -2.484375,-1.5621094 0,-0.7860938 0.6914062,-1.3202344 2.0742187,-1.3202344 1.7460938,0 2.4257813,0.7155469 2.7539063,2.3683594 l 0.070312,0.3325781 H 8.3427934 V -10.067039 H 7.7568559 l -0.2460937,0.7457809 c -0.375,-0.6248437 -1.4296875,-1.0078129 -2.7773438,-1.0078129 -2.3203125,0 -3.6445312,1.179141 -3.6445312,3.4870317 0,2.2575 1.546875,3.0435937 3.6679687,3.4467187 2.0390625,0.3728906 2.484375,0.8465625 2.484375,1.5621094 0,0.87679687 -0.6679687,1.30007812 -2.0742187,1.30007812 -2.1679688,0 -3.2226563,-1.05820312 -3.515625,-2.45906252 L 1.5224809,-3.6472737 H 0.78419969 V 0.00100754 H 1.4287309 l 0.3398438,-0.87679687 c 0.7617187,0.69539062 2.0273437,1.14890625 3.3515625,1.14890625 z m 0,0"
       style="fill:#181715;fill-opacity:1;fill-rule:nonzero;stroke:none"
       aria-label="s"
       transform="matrix(1.3333333,0,0,1.5503876,250.20831,52.603907)" />
    <path
       id="path15"
       d="m 4.6051372,0.29327317 c 1.6757812,0 2.6601562,-0.564375 3.46875,-2.19703127 L 7.5348247,-2.21618 c -0.5625,0.9171094 -0.9609375,1.25976567 -1.5703125,1.25976567 -0.5742188,0 -0.84375,-0.31242187 -0.84375,-1.00781247 V -9.3716487 H 7.6871684 V -10.067039 H 5.1207622 v -3.839766 H 4.2066997 c -0.8085938,2.005547 -2.3085938,3.70875 -3.98437501,3.839766 v 0.6953903 H 2.0387309 v 7.7803125 c 0,1.22953124 0.7734375,1.88460937 2.5664063,1.88460937 z m 0,0"
       style="fill:#181715;fill-opacity:1;fill-rule:nonzero;stroke:none"
       aria-label="t"
       transform="matrix(1.3333333,0,0,1.5503876,263.39497,52.603907)" />
    <path
       id="path16"
       d="m -0.33908937,-9.391805 h 1.1953125 l 4.51171877,9.32226567 -1.875,4.65609373 c -0.1875,0.403125 -0.3164063,0.5542969 -0.5625,0.5542969 -0.609375,0 -0.7148438,-0.886875 -1.7226563,-0.886875 -0.78515622,0 -1.35937497,0.5542969 -1.35937497,1.3807031 0,0.6953906 0.3984375,1.5923438 1.72265627,1.5923438 0.8671875,0 1.7109375,-0.403125 2.4726562,-2.2373438 L 10.067161,-9.391805 h 1.359375 v -0.675234 H 7.5124731 v 0.675234 H 9.1413794 L 6.9265356,-3.9395393 H 6.8445044 L 4.3835669,-9.391805 h 1.7929687 v -0.675234 h -6.51562497 z m 0,0"
       style="fill:#181715;fill-opacity:1;fill-rule:nonzero;stroke:none"
       aria-label="y"
       transform="matrix(1.3333333,0,0,1.5503876,273.94431,52.603907)" />
    <path
       id="path17"
       d="m 6.6453481,-9.6135237 c 0.6914063,0 1.1132813,0.241875 1.1132813,0.6953906 0,0.5542969 -0.6445313,0.645 -0.6445313,1.5217969 0,0.886875 0.6445313,1.4714062 1.6054688,1.4714062 1.0078125,0 1.7695311,-0.6046875 1.7695311,-1.6528125 0,-1.6125 -1.8164061,-2.7513285 -3.9374999,-2.7513285 -3.2226562,0 -5.5429687,2.6404692 -5.5429687,5.2809379 0,2.7210938 2.4609375,5.34140627 5.5195312,5.34140627 2.3085938,0 3.8203124,-1.45124997 4.4296874,-3.59789067 h -0.738281 c -0.8085939,2.0055469 -1.8750001,2.83195317 -3.4921876,2.83195317 -1.6757813,0 -2.25,-0.88687497 -2.25,-4.22273437 0,-4.0917188 0.8671875,-4.918125 2.1679687,-4.918125 z m 0,0"
       style="fill:#181715;fill-opacity:1;fill-rule:nonzero;stroke:none"
       aria-label="c"
       transform="matrix(1.3333333,0,0,1.5503876,288.16297,52.603907)" />
    <path
       id="path18"
       d="m 1.2785122,-6.1466487 h 0.6679687 c 0.046875,-1.77375 1.1367188,-3.2451563 3.0820313,-3.2451563 H 6.4464809 L 0.56366844,-0.78508621 V 0.00100754 H 9.8449184 V -4.1411018 H 9.1652309 l -0.023437,0.3628125 c -0.082031,2.0760937 -1.40625,3.10406247 -3.0585937,3.10406247 H 4.1378872 L 9.9738247,-9.3011018 V -10.067039 H 1.2785122 Z m 0,0"
       style="fill:#181715;fill-opacity:1;fill-rule:nonzero;stroke:none"
       aria-label="z"
       transform="matrix(1.3333333,0,0,1.5503876,303.64297,52.603907)" />
    <path
       id="path19"
       d="M 0.44654344,-9.391805 H 2.2629497 v 8.71757817 H 0.44654344 V 0.00100754 H 6.7981059 V -0.67422683 H 5.3449809 V -4.9171175 c 0,-2.5296093 1.2070313,-4.434375 2.6601563,-4.434375 0.6210937,0 1.0078125,0.3829688 1.0078125,1.1186719 v 7.55859377 H 7.4895122 v 0.67523437 h 6.0117188 v -0.67523437 h -1.40625 V -7.8901643 c 0,-1.370625 -1.3125,-2.4389067 -3.2343751,-2.4389067 -1.7460937,0 -2.8476562,0.8062504 -3.421875,2.1264848 h -0.09375 V -10.067039 H 0.44654344 Z m 0,0"
       style="fill:#181715;fill-opacity:1;fill-rule:nonzero;stroke:none"
       aria-label="n"
       transform="matrix(1.3333333,0,0,1.5503876,317.86164,52.603907)" />
    <path
       id="path20"
       d="m 3.9599809,0.27311692 c 1.5117188,0 2.6835938,-0.7659375 3.2109375,-1.54195312 h 0.09375 c 0.2226563,0.93726562 0.9140625,1.54195312 2.1445313,1.54195312 1.1015623,0 1.9453123,-0.47367188 2.8007813,-1.50164062 l -0.445313,-0.5139844 c -0.515625,0.5845313 -0.738281,0.7357031 -0.984375,0.7357031 -0.316406,0 -0.515625,-0.241875 -0.515625,-0.5139843 v -6.5104688 c 0,-1.3605469 -1.7226558,-2.2978129 -4.1132808,-2.2978129 -2.625,0 -4.5234375,1.1388285 -4.5234375,2.6606254 0,0.8667188 0.6328125,1.5419531 1.5,1.5419531 0.8789062,0 1.5703125,-0.6953906 1.5703125,-1.4714062 0,-0.6349219 -0.46875,-0.7860938 -0.46875,-1.1892188 0,-0.4736718 0.6210937,-0.80625 1.40625,-0.80625 0.9140625,0 1.5351562,0.4736719 1.5351562,1.2496875 v 2.6203125 c -3.7734375,0 -6.23437496,1.3202344 -6.23437496,3.466875 0,1.52179692 1.25390626,2.52960942 3.02343746,2.52960942 z m 1.5,-1.22953125 c -0.8320312,0 -1.2773437,-0.65507817 -1.2773437,-1.68304687 0,-1.5822656 1.0664062,-2.3885156 2.9882812,-2.3885156 v 1.7636718 c 0,1.3907813 -0.75,2.30789067 -1.7109375,2.30789067 z m 0,0"
       style="fill:#181715;fill-opacity:1;fill-rule:nonzero;stroke:none"
       aria-label="a"
       transform="matrix(1.3333333,0,0,1.5503876,336.20831,52.603907)" />
    <g
       id="g23">
      <path
         d="M 0,0 H 252.28346"
         style="fill:none;stroke:#181715;stroke-width:1;stroke-linecap:butt;stroke-linejoin:miter;stroke-miterlimit:10;stroke-dasharray:1, 6;stroke-dashoffset:0;stroke-opacity:1"
         transform="matrix(1.3333333,0,0,-1.3333333,18.89764,77.579507)"
         clip-path="url(#clipPath22)"
         id="path23" />
    </g>
    <g
       id="g25">
      <path
         d="M 0,0 H 252.28346"
         style="fill:none;stroke:#181715;stroke-width:1;stroke-linecap:butt;stroke-linejoin:miter;stroke-miterlimit:10;stroke-dasharray:4, 2, 1, 2;stroke-dashoffset:0;stroke-opacity:1"
         transform="matrix(1.3333333,0,0,-1.3333333,18.89764,70.91284)"
         clip-path="url(#clipPath24)"
         id="path25" />
    </g>
    <g
       id="g27">
      <path
         d="M 0,0 H 252.28346"
         style="fill:none;stroke:#181715;stroke-width:1;stroke-linecap:butt;stroke-linejoin:miter;stroke-miterlimit:10;stroke-dasharray:1, 4;stroke-dashoffset:0;stroke-opacity:1"
         transform="matrix(1.3333333,0,0,-1.3333333,18.89764,87.380587)"
         clip-path="url(#clipPath26)"
         id="path27" />
    </g>
    <g
       id="g56">
      <path
         d="M 0,0 H 217.2835"
         style="fill:none;stroke:#181715;stroke-width:1;stroke-linecap:butt;stroke-linejoin:miter;stroke-miterlimit:10;stroke-dasharray:4, 2, 1, 2;stroke-dashoffset:0;stroke-opacity:1"
         transform="matrix(1.3333333,0,0,-1.3333333,65.564307,54.91284)"
         clip-path="url(#clipPath55)"
         id="path56" />
    </g>
  </g>
</svg>
